<?xml version="1.0" encoding="utf-8"?>
<!-- Generator: Adobe Illustrator 23.0.0, SVG Export Plug-In . SVG Version: 6.00 Build 0)  -->
<svg version="1.1" id="katman_1" xmlns="http://www.w3.org/2000/svg" xmlns:xlink="http://www.w3.org/1999/xlink" x="0px" y="0px"
	 viewBox="0 0 100 100" style="enable-background:new 0 0 100 100;" xml:space="preserve">
<style type="text/css">
	.st0{opacity:0.71;fill:#010202;}
	.st1{fill:#FAFAFB;}
	.st2{fill-rule:evenodd;clip-rule:evenodd;fill:#FFFFFF;}
</style>
<circle class="st0" cx="50" cy="50" r="49.5"/>
<g>
	<g>
		<path class="st1" d="M50,78.6c-15.8,0-28.6-12.8-28.6-28.6S34.2,21.4,50,21.4S78.6,34.2,78.6,50S65.8,78.6,50,78.6z M50,23.3
			c-14.7,0-26.7,12-26.7,26.7s12,26.7,26.7,26.7s26.7-12,26.7-26.7S64.7,23.3,50,23.3z"/>
	</g>
	<g>
		<path class="st2" d="M33.5,69.4c-6.4-5.5-9.9-13.9-8.8-22.6c7.9,5.7,16.3,10.7,24.8,14.2C44.5,64.1,39.1,66.9,33.5,69.4z"/>
		<path class="st2" d="M58.6,74c-4.7,1.7-10,2-15.2,0.6c-3.3-0.9-6.2-2.4-8.8-4.3c8.9-4,17.4-8.8,24.8-14.4
			C59.5,61.8,59.2,67.9,58.6,74z"/>
		<path class="st2" d="M75.1,54.6c-0.1,0.7-0.3,1.4-0.5,2.1c-2.1,7.9-7.7,13.9-14.7,16.9c0-0.4,0.1-0.7,0.1-1.1
			c0.8-9.1,1-18.5-0.2-27.6C64.9,47.7,70.1,50.9,75.1,54.6z"/>
		<path class="st2" d="M66.5,30.6c6.4,5.5,9.9,13.9,8.8,22.6C67.4,47.5,58.9,42.5,50.4,39C55.5,35.9,60.9,33.1,66.5,30.6z"/>
		<path class="st2" d="M56.6,25.4c3.3,0.9,6.2,2.4,8.8,4.3c-8.9,4-17.4,8.8-24.8,14.4c-0.1-6,0.1-12,0.8-18.1
			C46.1,24.3,51.4,24,56.6,25.4z"/>
		<path class="st2" d="M24.9,45.4c0.1-0.7,0.3-1.4,0.5-2.1c2.1-7.9,7.7-13.9,14.7-16.9c0,0.4-0.1,0.7-0.1,1.1
			c-0.8,9.1-1,18.5,0.2,27.6C35.1,52.3,29.9,49.1,24.9,45.4z"/>
	</g>
</g>
</svg>
