<?xml version="1.0" encoding="utf-8"?>
<!-- Generator: Adobe Illustrator 23.0.0, SVG Export Plug-In . SVG Version: 6.00 Build 0)  -->
<svg version="1.1" id="katman_1" xmlns="http://www.w3.org/2000/svg" xmlns:xlink="http://www.w3.org/1999/xlink" x="0px" y="0px"
	 viewBox="0 0 57 57" style="enable-background:new 0 0 57 57;" xml:space="preserve">
<style type="text/css">
	.st0{opacity:0.4;fill:#010202;enable-background:new    ;}
	.st1{fill:#FFFFFF;}
</style>
<circle class="st0" cx="28.5" cy="28.5" r="28.3"/>
<g>
	<g>
		<path class="st1" d="M42.2,18.9H14.8c-0.7,0-1.3-0.6-1.3-1.3c0-0.7,0.6-1.3,1.3-1.3h27.4c0.7,0,1.3,0.6,1.3,1.3
			C43.5,18.3,42.9,18.9,42.2,18.9L42.2,18.9z"/>
	</g>
	<g>
		<path class="st1" d="M31.9,18.1c-0.3-1.6-1.8-2.8-3.4-2.8s-3.1,1.2-3.4,2.8l-2.6-0.5c0.6-2.8,3.1-4.9,6-4.9s5.4,2.1,6,4.9
			L31.9,18.1L31.9,18.1z"/>
	</g>
	<g>
		<path class="st1" d="M19.6,44.3c-1.4,0-2.5-1.1-2.6-2.6l-1.4-22.8c0-0.7,0.5-1.4,1.2-1.4c0.8-0.1,1.4,0.5,1.5,1.2l1.4,22.9
			l17.8,0.1l1.4-22.9c0-0.7,0.7-1.3,1.4-1.2c0.7,0,1.3,0.7,1.2,1.4L40,41.7c-0.1,1.4-1.2,2.6-2.6,2.6l0,0H19.6L19.6,44.3z"/>
	</g>
	<g>
		<g>
			<path class="st1" d="M23.5,39.5c-0.7,0-1.3-0.5-1.3-1.2l-0.9-15.7c0-0.7,0.5-1.3,1.2-1.4c0.7-0.1,1.3,0.5,1.4,1.2l0.9,15.7
				C24.9,38.8,24.3,39.4,23.5,39.5L23.5,39.5L23.5,39.5z"/>
		</g>
		<g>
			<path class="st1" d="M33.5,39.5L33.5,39.5c-0.8,0-1.4-0.7-1.3-1.4l0.9-15.7c0-0.7,0.7-1.3,1.4-1.2c0.7,0,1.3,0.7,1.2,1.4
				l-0.9,15.7C34.8,38.9,34.2,39.5,33.5,39.5L33.5,39.5z"/>
		</g>
	</g>
	<g>
		<path class="st1" d="M28.5,39.5c-0.7,0-1.3-0.6-1.3-1.3V22.4c0-0.7,0.6-1.3,1.3-1.3c0.7,0,1.3,0.6,1.3,1.3v15.7
			C29.8,38.9,29.2,39.5,28.5,39.5L28.5,39.5z"/>
	</g>
</g>
</svg>
