<?xml version="1.0" encoding="utf-8"?>
<!-- Generator: Adobe Illustrator 23.0.0, SVG Export Plug-In . SVG Version: 6.00 Build 0)  -->
<svg version="1.1" id="katman_1" xmlns="http://www.w3.org/2000/svg" xmlns:xlink="http://www.w3.org/1999/xlink" x="0px" y="0px"
	 viewBox="0 0 500 92" style="enable-background:new 0 0 500 92;" xml:space="preserve">
<style type="text/css">
	.st0{fill:#FEEB1A;}
</style>
<g>
	<path class="st0" d="M66.9,92H47.7L28.7,35.2L28.4,92H0V0l38.5,0c0,0,12.3,30.4,18.6,46c6.3-15.7,12.5-30.8,18.6-46
		c12.8,0,38.5,0,38.5,0v92H85.7l-0.3-56.5L66.9,92z"/>
	<path class="st0" d="M391.7,92h-32.6c0,0-11.7-22.7-17.6-34.1c-0.5-0.9-0.8-1.9-2.2-1.8c-2.9,0.1-5.7,0.1-8.6,0
		c-1.1,0-1.5,0.3-1.4,1.4c0.1,11.5,0.1,34.5,0.1,34.5H301V0l74.8,0c0,0,0.9,0.3,1.3,0.4c8.5,1.5,14.8,8.4,15,16.6
		c0.2,7.6,0,15.2,0,22.8c0,4-1.6,7.5-4.4,10.3c-4.4,4.4-9.7,6.3-15.9,6c-0.6,0-1.4-0.3-1.7,0.3c-0.3,0.5,0.4,1,0.6,1.4
		c3,4.9,6.1,9.8,9.1,14.7C383.8,79,391.7,92,391.7,92z M346.5,18c-5.3,0-10.6,0-15.9,0c-1.3,0-1.7,0.4-1.7,1.6
		c0.1,4.9,0.1,9.7,0,14.6c0,1.6,0.5,2,2,1.9c9.9-0.1,19.9,0,29.9,0c0.8,0,1.7-0.1,2.5-0.2c2-0.3,2.9-1.3,2.9-3.4
		c0-3.4,0-6.8-0.1-10.2c0-3.3-1-4.3-4.4-4.3C356.6,18,351.5,18,346.5,18z"/>
	<path class="st0" d="M419.3,0h65.2c0,0,1.5,0.6,2.3,0.8c8.5,2.1,13.3,8,13.3,16.8c0,18.7,0,37.5,0,56.2c0,1.2,0,2.5-0.3,3.7
		c-1.9,8.6-9.1,14.2-18.4,14.2c-19.4,0-38.7,0-58.1,0c-0.9,0-3.7-0.1-4.3-0.2c-9.2-1.7-15.4-8.5-15.4-17.3
		c-0.1-19.1-0.1-38.3,0-57.4c0.1-6.8,3.4-11.9,9.7-14.8C415.2,1.1,419.3,0,419.3,0z M432.1,45.8c0,7.6,0,15.2,0,22.8
		c0,3.7,1.6,5.4,5.3,5.4c9.6,0,19.2,0,28.8,0c3.6,0,5.2-1.6,5.2-5.2c0-15.2,0-30.5,0-45.7c0-3.4-1.4-4.9-4.8-4.9
		c-10,0-19.9,0-29.9,0c-3.3,0-4.7,1.5-4.7,4.7C432.1,30.5,432.1,38.1,432.1,45.8z"/>
	<path class="st0" d="M201.1,92c-25.1,0-50.2,0-75.2,0c0-30.7,0-61.3,0-92c24.8,0,49.6,0,74.4,0c0,5.2-0.1,10.4,0,15.7
		c0,1.8-0.4,2.4-2.4,2.4c-13.8-0.1-27.6,0-41.4-0.1c-1.5,0-2,0.4-2,2c0.1,4.7,0.1,9.3,0,14c-0.1,1.9,0.6,2.3,2.4,2.3
		c13.8-0.1,27.6,0,41.4-0.1c1.5,0,2,0.3,2,2c-0.1,4.5-0.1,9.1,0,13.6c0.1,2-0.4,2.7-2.6,2.7c-13.7-0.1-27.4,0-41.1-0.1
		c-1.5,0-2,0.3-2,1.9c0.1,5.2,0.1,10.4,0,15.7c0,1.6,0.3,2.1,2.1,2.1c6.9-0.1,13.8,0,20.7,0c7.4,0,14.8,0,22.1,0
		c1.2,0,1.8,0.2,1.7,1.6C201.1,81,201.1,86.5,201.1,92z"/>
	<path class="st0" d="M236.2,92c0,0-0.2-48.5-0.1-71.4c0-2-0.5-2.6-2.5-2.5c-7.5,0.1-15,0-22.6,0.1c-1.8,0-2.2-0.5-2.2-2.2
		C209,10.6,208.6,5.3,209,0c27.6,0,55.2,0,82.8,0c0,5.3,0,10.6,0.1,15.9c0,1.7-0.3,2.3-2.1,2.2c-7.6-0.1-15.2,0-22.8-0.1
		c-1.9,0-2.4,0.4-2.4,2.4c0.1,23.9,0,71.6,0,71.6H236.2z"/>
</g>
</svg>
